<svg width="150" height="27" viewBox="0 0 150 27" fill="none" xmlns="http://www.w3.org/2000/svg">
<path d="M2.56922 25.7626C1.74801 25.7626 1.1145 25.5397 0.668702 25.0939C0.222901 24.6481 0 24.0146 0 23.1934V3.48429C0 2.66307 0.246364 2.00611 0.739091 1.51338C1.23182 1.02065 1.90052 0.774287 2.7452 0.774287C3.58987 0.774287 4.25857 1.02065 4.7513 1.51338C5.24403 2.00611 5.49039 2.66307 5.49039 3.48429V21.2929H14.5003C16.2131 21.2929 17.0695 22.0437 17.0695 23.5453C17.0695 25.0235 16.2131 25.7626 14.5003 25.7626H2.56922Z" fill="url(#paint0_linear)"/>
<path d="M22.0839 25.9738C21.3096 25.9738 20.6644 25.7626 20.1482 25.3403C19.6555 24.9179 19.4091 24.2962 19.4091 23.4749V10.6288C19.4091 9.80762 19.6672 9.18585 20.1834 8.76351C20.6996 8.34117 21.3331 8.13 22.0839 8.13C22.8347 8.13 23.4565 8.34117 23.9492 8.76351C24.4654 9.18585 24.7235 9.80762 24.7235 10.6288V23.4749C24.7235 24.2962 24.4654 24.9179 23.9492 25.3403C23.4565 25.7626 22.8347 25.9738 22.0839 25.9738ZM22.0839 5.31442C21.1454 5.31442 20.4063 5.07979 19.8666 4.61052C19.327 4.11779 19.0572 3.46082 19.0572 2.63961C19.0572 1.8184 19.327 1.17316 19.8666 0.703898C20.4063 0.234633 21.1454 0 22.0839 0C22.999 0 23.7263 0.246364 24.266 0.739092C24.8291 1.20836 25.1107 1.84186 25.1107 2.63961C25.1107 3.46082 24.8408 4.11779 24.3012 4.61052C23.7615 5.07979 23.0224 5.31442 22.0839 5.31442Z" fill="url(#paint1_linear)"/>
<path d="M38.1891 4.82169C37.2271 4.89208 36.535 5.18537 36.1126 5.70156C35.6903 6.21775 35.4791 6.94511 35.4791 7.88364V8.48195H37.9428C39.5383 8.48195 40.336 9.15065 40.336 10.4881C40.336 11.802 39.5383 12.459 37.9428 12.459H35.4791V23.4397C35.4791 24.261 35.221 24.8827 34.7048 25.3051C34.2121 25.7274 33.5903 25.9386 32.8395 25.9386C32.0652 25.9386 31.42 25.7274 30.9038 25.3051C30.4111 24.8827 30.1647 24.261 30.1647 23.4397V12.459H28.7569C27.1849 12.459 26.3989 11.802 26.3989 10.4881C26.3989 9.15065 27.1849 8.48195 28.7569 8.48195H30.1647C30.1647 6.22948 30.7865 4.45801 32.03 3.16753C33.2736 1.87706 34.9864 1.1497 37.1685 0.985455L38.0835 0.915066L38.717 0.879871C40.336 0.879871 41.1455 1.50165 41.1455 2.7452C41.1455 3.96528 40.465 4.63398 39.1042 4.7513L38.1891 4.82169Z" fill="url(#paint2_linear)"/>
<path d="M55.7194 20.6242C56.1887 20.6242 56.5641 20.8119 56.8457 21.1873C57.1507 21.5627 57.3032 22.0437 57.3032 22.6303C57.3032 23.0291 57.1859 23.4045 56.9513 23.7565C56.7166 24.085 56.3881 24.3665 55.9658 24.6012C55.168 25.0235 54.2413 25.3755 53.1854 25.657C52.1296 25.9151 51.1558 26.0442 50.2642 26.0442C48.3872 26.0442 46.7448 25.6805 45.337 24.9531C43.9526 24.2258 42.8851 23.1934 42.1342 21.856C41.3834 20.4951 41.008 18.8996 41.008 17.0695C41.008 15.3097 41.3717 13.7494 42.099 12.3886C42.8264 11.0277 43.8353 9.97186 45.1258 9.22104C46.4163 8.44676 47.8827 8.05961 49.5251 8.05961C51.0972 8.05961 52.4698 8.41156 53.6429 9.11546C54.8396 9.79589 55.7664 10.7813 56.4233 12.0718C57.0803 13.3388 57.4088 14.8287 57.4088 16.5416C57.4088 17.0578 57.2797 17.4566 57.0216 17.7382C56.787 17.9963 56.4468 18.1253 56.001 18.1253H46.1464C46.3107 19.5097 46.733 20.5186 47.4135 21.1521C48.0939 21.7621 49.0676 22.0671 50.3346 22.0671C51.0151 22.0671 51.6251 21.985 52.1648 21.8208C52.7044 21.6565 53.3027 21.4336 53.9597 21.1521C54.2882 21.0113 54.6049 20.894 54.91 20.8001C55.215 20.6828 55.4848 20.6242 55.7194 20.6242ZM49.6659 11.7199C48.657 11.7199 47.8475 12.0484 47.2375 12.7053C46.6274 13.3388 46.2638 14.2656 46.1464 15.4857H52.939C52.8687 14.2422 52.5519 13.3036 51.9888 12.6701C51.4491 12.0366 50.6748 11.7199 49.6659 11.7199Z" fill="url(#paint3_linear)"/>
<path d="M70.2268 22.1023C70.9307 22.1493 71.4469 22.3252 71.7754 22.6303C72.1039 22.9353 72.2681 23.3811 72.2681 23.9677C72.2681 24.6481 71.9983 25.1643 71.4587 25.5162C70.919 25.8682 70.1447 26.009 69.1358 25.9386L68.1504 25.8682C64.0443 25.5397 61.9913 23.3928 61.9913 19.4275V12.459H60.5835C59.8092 12.459 59.2226 12.2947 58.8237 11.9662C58.4249 11.6143 58.2254 11.1216 58.2254 10.4881C58.2254 9.83109 58.4249 9.33836 58.8237 9.00987C59.2226 8.65792 59.8092 8.48195 60.5835 8.48195H61.9913V5.73676C61.9913 4.96247 62.2259 4.35243 62.6952 3.90662C63.1879 3.46082 63.8449 3.23792 64.6661 3.23792C65.4873 3.23792 66.1325 3.46082 66.6018 3.90662C67.071 4.35243 67.3057 4.96247 67.3057 5.73676V8.48195H69.7693C71.3648 8.48195 72.1626 9.15065 72.1626 10.4881C72.1626 11.1216 71.9631 11.6143 71.5642 11.9662C71.1654 12.2947 70.5671 12.459 69.7693 12.459H67.3057V19.8147C67.3057 20.5186 67.4699 21.0582 67.7984 21.4336C68.1269 21.7856 68.6079 21.985 69.2414 22.032L70.2268 22.1023Z" fill="url(#paint4_linear)"/>
<path d="M82.5351 26.0442C80.705 26.0442 79.0978 25.6805 77.7134 24.9531C76.3291 24.2023 75.2615 23.1582 74.5107 21.8208C73.7599 20.4599 73.3845 18.8644 73.3845 17.0343C73.3845 15.2042 73.7599 13.6204 74.5107 12.283C75.2615 10.9221 76.3291 9.87801 77.7134 9.15065C79.0978 8.42329 80.705 8.05961 82.5351 8.05961C84.3653 8.05961 85.9725 8.42329 87.3568 9.15065C88.7411 9.87801 89.8087 10.9221 90.5595 12.283C91.3104 13.6204 91.6858 15.2042 91.6858 17.0343C91.6858 18.8644 91.3104 20.4599 90.5595 21.8208C89.8087 23.1582 88.7411 24.2023 87.3568 24.9531C85.9725 25.6805 84.3653 26.0442 82.5351 26.0442ZM82.5351 21.9968C85.1161 21.9968 86.4066 20.3426 86.4066 17.0343C86.4066 15.3684 86.0663 14.1249 85.3859 13.3036C84.7289 12.4824 83.7787 12.0718 82.5351 12.0718C79.9542 12.0718 78.6637 13.726 78.6637 17.0343C78.6637 20.3426 79.9542 21.9968 82.5351 21.9968Z" fill="url(#paint5_linear)"/>
<path d="M108.892 8.13C109.713 8.13 110.359 8.3529 110.828 8.7987C111.321 9.2445 111.567 9.85455 111.567 10.6288V23.5453C111.567 24.2727 111.309 24.8593 110.793 25.3051C110.3 25.7509 109.655 25.9738 108.857 25.9738C108.106 25.9738 107.508 25.7626 107.062 25.3403C106.616 24.9179 106.393 24.3548 106.393 23.6509V23.299C105.854 24.1906 105.138 24.871 104.246 25.3403C103.378 25.8095 102.393 26.0442 101.29 26.0442C99.108 26.0442 97.4773 25.4459 96.398 24.2492C95.3422 23.0291 94.8143 21.199 94.8143 18.7588V10.6288C94.8143 9.85455 95.0489 9.2445 95.5182 8.7987C96.0109 8.3529 96.6679 8.13 97.4891 8.13C98.3103 8.13 98.9555 8.3529 99.4248 8.7987C99.8941 9.2445 100.129 9.85455 100.129 10.6288V18.8644C100.129 19.8968 100.34 20.6594 100.762 21.1521C101.208 21.6448 101.877 21.8912 102.768 21.8912C103.801 21.8912 104.634 21.5392 105.267 20.8353C105.924 20.1314 106.253 19.2046 106.253 18.0549V10.6288C106.253 9.85455 106.487 9.2445 106.956 8.7987C107.426 8.3529 108.071 8.13 108.892 8.13Z" fill="url(#paint6_linear)"/>
<path d="M123.634 26.0442C121.851 26.0442 120.291 25.6805 118.953 24.9531C117.616 24.2258 116.583 23.1934 115.856 21.856C115.152 20.5186 114.8 18.9465 114.8 17.1399C114.8 15.3332 115.176 13.7494 115.926 12.3886C116.701 11.0042 117.78 9.93667 119.164 9.18585C120.549 8.43502 122.144 8.05961 123.951 8.05961C124.889 8.05961 125.828 8.18866 126.766 8.44676C127.728 8.70485 128.585 9.06853 129.336 9.5378C130.063 9.9836 130.427 10.6406 130.427 11.5087C130.427 12.1187 130.286 12.6232 130.004 13.0221C129.723 13.3975 129.347 13.5852 128.878 13.5852C128.573 13.5852 128.28 13.5383 127.998 13.4444C127.74 13.3271 127.388 13.1629 126.942 12.9517C126.45 12.6936 126.004 12.4942 125.605 12.3534C125.23 12.2126 124.796 12.1422 124.303 12.1422C122.989 12.1422 121.98 12.5645 121.276 13.4092C120.596 14.2304 120.255 15.4388 120.255 17.0343C120.255 18.6298 120.596 19.8499 121.276 20.6946C121.98 21.5392 122.989 21.9616 124.303 21.9616C124.796 21.9616 125.23 21.9029 125.605 21.7856C125.98 21.6448 126.438 21.4336 126.978 21.1521C127.423 20.9409 127.775 20.7884 128.033 20.6946C128.292 20.5772 128.573 20.5186 128.878 20.5186C129.324 20.5186 129.688 20.718 129.969 21.1169C130.274 21.5158 130.427 22.0202 130.427 22.6303C130.427 23.4984 130.063 24.1436 129.336 24.566C128.585 25.0352 127.717 25.3989 126.731 25.657C125.746 25.9151 124.713 26.0442 123.634 26.0442Z" fill="url(#paint7_linear)"/>
<path d="M143.982 8.05961C147.994 8.05961 150 10.4881 150 15.3449V23.4749C150 24.2492 149.754 24.8593 149.261 25.3051C148.792 25.7509 148.146 25.9738 147.325 25.9738C146.504 25.9738 145.859 25.7509 145.389 25.3051C144.92 24.8593 144.686 24.2492 144.686 23.4749V15.2745C144.686 14.2422 144.463 13.4796 144.017 12.9869C143.595 12.4707 142.926 12.2126 142.011 12.2126C140.908 12.2126 140.016 12.5645 139.336 13.2684C138.679 13.9723 138.351 14.9109 138.351 16.084V23.4749C138.351 24.2492 138.116 24.8593 137.647 25.3051C137.177 25.7509 136.532 25.9738 135.711 25.9738C134.89 25.9738 134.233 25.7509 133.74 25.3051C133.271 24.8593 133.036 24.2492 133.036 23.4749V3.20273C133.036 2.47537 133.282 1.88879 133.775 1.44299C134.291 0.997187 134.96 0.774287 135.781 0.774287C136.556 0.774287 137.177 0.985455 137.647 1.40779C138.116 1.83013 138.351 2.39325 138.351 3.09714V10.7696C138.961 9.87801 139.747 9.20931 140.709 8.76351C141.671 8.29424 142.762 8.05961 143.982 8.05961Z" fill="url(#paint8_linear)"/>
<defs>
<linearGradient id="paint0_linear" x1="-1.8116" y1="5.28359e-08" x2="-3.62425" y2="32.4771" gradientUnits="userSpaceOnUse">
<stop stop-color="#FAB463"/>
<stop offset="1" stop-color="#F97830"/>
</linearGradient>
<linearGradient id="paint1_linear" x1="-1.8116" y1="5.28359e-08" x2="-3.62425" y2="32.4771" gradientUnits="userSpaceOnUse">
<stop stop-color="#FAB463"/>
<stop offset="1" stop-color="#F97830"/>
</linearGradient>
<linearGradient id="paint2_linear" x1="-1.8116" y1="5.28359e-08" x2="-3.62425" y2="32.4771" gradientUnits="userSpaceOnUse">
<stop stop-color="#FAB463"/>
<stop offset="1" stop-color="#F97830"/>
</linearGradient>
<linearGradient id="paint3_linear" x1="-1.8116" y1="5.28359e-08" x2="-3.62425" y2="32.4771" gradientUnits="userSpaceOnUse">
<stop stop-color="#FAB463"/>
<stop offset="1" stop-color="#F97830"/>
</linearGradient>
<linearGradient id="paint4_linear" x1="-1.8116" y1="5.28359e-08" x2="-3.62425" y2="32.4771" gradientUnits="userSpaceOnUse">
<stop stop-color="#FAB463"/>
<stop offset="1" stop-color="#F97830"/>
</linearGradient>
<linearGradient id="paint5_linear" x1="-1.8116" y1="5.28359e-08" x2="-3.62425" y2="32.4771" gradientUnits="userSpaceOnUse">
<stop stop-color="#FAB463"/>
<stop offset="1" stop-color="#F97830"/>
</linearGradient>
<linearGradient id="paint6_linear" x1="-1.8116" y1="5.28359e-08" x2="-3.62425" y2="32.4771" gradientUnits="userSpaceOnUse">
<stop stop-color="#FAB463"/>
<stop offset="1" stop-color="#F97830"/>
</linearGradient>
<linearGradient id="paint7_linear" x1="-1.8116" y1="5.28359e-08" x2="-3.62425" y2="32.4771" gradientUnits="userSpaceOnUse">
<stop stop-color="#FAB463"/>
<stop offset="1" stop-color="#F97830"/>
</linearGradient>
<linearGradient id="paint8_linear" x1="-1.8116" y1="5.28359e-08" x2="-3.62425" y2="32.4771" gradientUnits="userSpaceOnUse">
<stop stop-color="#FAB463"/>
<stop offset="1" stop-color="#F97830"/>
</linearGradient>
</defs>
</svg>
