<svg width="152" height="29" viewBox="0 0 152 29" fill="none" xmlns="http://www.w3.org/2000/svg">
<g filter="url(#filter0_d)">
<path d="M3.57512 25.8218C2.75202 25.8218 2.11706 25.5984 1.67024 25.1515C1.22341 24.7047 1 24.0697 1 23.2466V3.49229C1 2.66919 1.24693 2.01071 1.74079 1.51685C2.23465 1.02299 2.90488 0.776064 3.7515 0.776064C4.59812 0.776064 5.26835 1.02299 5.76221 1.51685C6.25607 2.01071 6.503 2.66919 6.503 3.49229V21.3418H15.5336C17.2503 21.3418 18.1087 22.0943 18.1087 23.5994C18.1087 25.081 17.2503 25.8218 15.5336 25.8218H3.57512Z" fill="white"/>
<path d="M23.1346 26.0334C22.3586 26.0334 21.7119 25.8218 21.1945 25.3985C20.7006 24.9752 20.4537 24.3519 20.4537 23.5289V10.6532C20.4537 9.83014 20.7124 9.20694 21.2298 8.78364C21.7471 8.36033 22.3821 8.14867 23.1346 8.14867C23.8872 8.14867 24.5104 8.36033 25.0042 8.78364C25.5216 9.20694 25.7803 9.83014 25.7803 10.6532V23.5289C25.7803 24.3519 25.5216 24.9752 25.0042 25.3985C24.5104 25.8218 23.8872 26.0334 23.1346 26.0334ZM23.1346 5.32662C22.194 5.32662 21.4532 5.09145 20.9123 4.62111C20.3714 4.12725 20.1009 3.46877 20.1009 2.64567C20.1009 1.82258 20.3714 1.17586 20.9123 0.705514C21.4532 0.235171 22.194 0 23.1346 0C24.0518 0 24.7808 0.24693 25.3217 0.740789C25.8861 1.21113 26.1683 1.84609 26.1683 2.64567C26.1683 3.46877 25.8979 4.12725 25.357 4.62111C24.8161 5.09145 24.0753 5.32662 23.1346 5.32662Z" fill="white"/>
<path d="M39.2768 4.83276C38.3126 4.90331 37.6189 5.19728 37.1956 5.71465C36.7723 6.23203 36.5606 6.96106 36.5606 7.90174V8.50143H39.0299C40.6291 8.50143 41.4286 9.17167 41.4286 10.5121C41.4286 11.8291 40.6291 12.4876 39.0299 12.4876H36.5606V23.4936C36.5606 24.3167 36.3019 24.9399 35.7845 25.3632C35.2907 25.7865 34.6675 25.9981 33.9149 25.9981C33.1389 25.9981 32.4921 25.7865 31.9748 25.3632C31.4809 24.9399 31.234 24.3167 31.234 23.4936V12.4876H29.823C28.2473 12.4876 27.4595 11.8291 27.4595 10.5121C27.4595 9.17167 28.2473 8.50143 29.823 8.50143H31.234C31.234 6.24379 31.8572 4.46825 33.1036 3.17481C34.35 1.88137 36.0667 1.15234 38.2538 0.987718L39.171 0.917167L39.806 0.881892C41.4286 0.881892 42.24 1.50509 42.24 2.7515C42.24 3.97439 41.558 4.64463 40.194 4.76221L39.2768 4.83276Z" fill="white"/>
<path d="M56.8474 20.6715C57.3177 20.6715 57.694 20.8597 57.9762 21.2359C58.2819 21.6122 58.4348 22.0943 58.4348 22.6822C58.4348 23.082 58.3172 23.4583 58.082 23.8111C57.8469 24.1403 57.5176 24.4225 57.0943 24.6577C56.2948 25.081 55.3658 25.4337 54.3076 25.7159C53.2493 25.9746 52.2733 26.104 51.3797 26.104C49.4983 26.104 47.8521 25.7395 46.4411 25.0104C45.0536 24.2814 43.9835 23.2466 43.231 21.9062C42.4785 20.5422 42.1022 18.943 42.1022 17.1087C42.1022 15.3449 42.4667 13.781 43.1957 12.417C43.9248 11.053 44.936 9.99476 46.2294 9.24222C47.5229 8.46615 48.9927 8.07812 50.6389 8.07812C52.2145 8.07812 53.5903 8.43088 54.7661 9.13639C55.9655 9.81839 56.8944 10.8061 57.5529 12.0995C58.2114 13.3695 58.5406 14.8628 58.5406 16.5795C58.5406 17.0969 58.4113 17.4967 58.1526 17.7789C57.9174 18.0376 57.5764 18.167 57.1296 18.167H47.2524C47.417 19.5545 47.8404 20.5657 48.5224 21.2007C49.2043 21.8121 50.1803 22.1178 51.4502 22.1178C52.1322 22.1178 52.7437 22.0355 53.2846 21.8709C53.8255 21.7063 54.4251 21.4829 55.0836 21.2007C55.4129 21.0596 55.7303 20.942 56.0361 20.8479C56.3418 20.7303 56.6122 20.6715 56.8474 20.6715ZM50.78 11.7468C49.7688 11.7468 48.9574 12.076 48.346 12.7345C47.7345 13.3695 47.37 14.2984 47.2524 15.5213H54.0606C53.9901 14.2749 53.6726 13.3342 53.1082 12.6992C52.5673 12.0643 51.7912 11.7468 50.78 11.7468Z" fill="white"/>
<path d="M71.0436 22.1531C71.7492 22.2001 72.2665 22.3765 72.5958 22.6822C72.925 22.988 73.0896 23.4348 73.0896 24.0227C73.0896 24.7047 72.8192 25.2221 72.2783 25.5748C71.7374 25.9276 70.9613 26.0687 69.9501 25.9981L68.9624 25.9276C64.8469 25.5984 62.7891 23.4465 62.7891 19.4722V12.4876H61.3781C60.602 12.4876 60.0141 12.323 59.6143 11.9937C59.2145 11.641 59.0146 11.1471 59.0146 10.5121C59.0146 9.85366 59.2145 9.3598 59.6143 9.03056C60.0141 8.67781 60.602 8.50143 61.3781 8.50143H62.7891V5.74993C62.7891 4.97386 63.0243 4.36242 63.4947 3.9156C63.9885 3.46877 64.647 3.24536 65.4701 3.24536C66.2932 3.24536 66.9399 3.46877 67.4102 3.9156C67.8806 4.36242 68.1158 4.97386 68.1158 5.74993V8.50143H70.5851C72.1842 8.50143 72.9838 9.17167 72.9838 10.5121C72.9838 11.1471 72.7839 11.641 72.3841 11.9937C71.9843 12.323 71.3846 12.4876 70.5851 12.4876H68.1158V19.8602C68.1158 20.5657 68.2804 21.1066 68.6096 21.4829C68.9389 21.8356 69.421 22.0355 70.0559 22.0826L71.0436 22.1531Z" fill="white"/>
<path d="M83.3802 26.104C81.5459 26.104 79.9349 25.7395 78.5474 25.0104C77.1599 24.2579 76.0899 23.2114 75.3373 21.8709C74.5848 20.5069 74.2085 18.9077 74.2085 17.0734C74.2085 15.2391 74.5848 13.6517 75.3373 12.3112C76.0899 10.9472 77.1599 9.90069 78.5474 9.17167C79.9349 8.44264 81.5459 8.07812 83.3802 8.07812C85.2145 8.07812 86.8254 8.44264 88.213 9.17167C89.6005 9.90069 90.6705 10.9472 91.423 12.3112C92.1756 13.6517 92.5519 15.2391 92.5519 17.0734C92.5519 18.9077 92.1756 20.5069 91.423 21.8709C90.6705 23.2114 89.6005 24.2579 88.213 25.0104C86.8254 25.7395 85.2145 26.104 83.3802 26.104ZM83.3802 22.0473C85.9671 22.0473 87.2605 20.3893 87.2605 17.0734C87.2605 15.4037 86.9195 14.1573 86.2375 13.3342C85.579 12.5111 84.6266 12.0995 83.3802 12.0995C80.7933 12.0995 79.4999 13.7575 79.4999 17.0734C79.4999 20.3893 80.7933 22.0473 83.3802 22.0473Z" fill="white"/>
<path d="M109.798 8.14867C110.621 8.14867 111.268 8.37208 111.738 8.81891C112.232 9.26573 112.479 9.87718 112.479 10.6532V23.5994C112.479 24.3284 112.22 24.9164 111.703 25.3632C111.209 25.81 110.562 26.0334 109.763 26.0334C109.01 26.0334 108.41 25.8218 107.963 25.3985C107.517 24.9752 107.293 24.4107 107.293 23.7052V23.3525C106.752 24.2461 106.035 24.9281 105.141 25.3985C104.271 25.8688 103.284 26.104 102.178 26.104C99.9912 26.104 98.3567 25.5043 97.2749 24.3049C96.2167 23.082 95.6875 21.2477 95.6875 18.8019V10.6532C95.6875 9.87718 95.9227 9.26573 96.393 8.81891C96.8869 8.37208 97.5454 8.14867 98.3685 8.14867C99.1916 8.14867 99.8383 8.37208 100.309 8.81891C100.779 9.26573 101.014 9.87718 101.014 10.6532V18.9077C101.014 19.9425 101.226 20.7068 101.649 21.2007C102.096 21.6945 102.766 21.9414 103.66 21.9414C104.695 21.9414 105.529 21.5887 106.164 20.8832C106.823 20.1777 107.152 19.2487 107.152 18.0964V10.6532C107.152 9.87718 107.387 9.26573 107.858 8.81891C108.328 8.37208 108.975 8.14867 109.798 8.14867Z" fill="white"/>
<path d="M124.574 26.104C122.786 26.104 121.222 25.7395 119.882 25.0104C118.541 24.2814 117.507 23.2466 116.778 21.9062C116.072 20.5657 115.719 18.9901 115.719 17.1792C115.719 15.3684 116.096 13.781 116.848 12.417C117.624 11.0295 118.706 9.95949 120.094 9.20694C121.481 8.45439 123.08 8.07812 124.891 8.07812C125.832 8.07812 126.772 8.20747 127.713 8.46615C128.677 8.72484 129.536 9.08936 130.288 9.5597C131.017 10.0065 131.382 10.665 131.382 11.5351C131.382 12.1466 131.241 12.6522 130.958 13.052C130.676 13.4283 130.3 13.6164 129.83 13.6164C129.524 13.6164 129.23 13.5694 128.948 13.4753C128.689 13.3577 128.336 13.1931 127.889 12.9814C127.396 12.7227 126.949 12.5229 126.549 12.3817C126.173 12.2406 125.738 12.1701 125.244 12.1701C123.927 12.1701 122.916 12.5934 122.21 13.44C121.528 14.2631 121.187 15.4742 121.187 17.0734C121.187 18.6726 121.528 19.8955 122.21 20.7421C122.916 21.5887 123.927 22.012 125.244 22.012C125.738 22.012 126.173 21.9532 126.549 21.8356C126.925 21.6945 127.384 21.4829 127.925 21.2007C128.372 20.989 128.724 20.8361 128.983 20.7421C129.242 20.6245 129.524 20.5657 129.83 20.5657C130.276 20.5657 130.641 20.7656 130.923 21.1654C131.229 21.5652 131.382 22.0708 131.382 22.6822C131.382 23.5524 131.017 24.1991 130.288 24.6224C129.536 25.0927 128.666 25.4573 127.678 25.7159C126.69 25.9746 125.655 26.104 124.574 26.104Z" fill="white"/>
<path d="M144.968 8.07812C148.989 8.07812 151 10.5121 151 15.3802V23.5289C151 24.3049 150.753 24.9164 150.259 25.3632C149.789 25.81 149.142 26.0334 148.319 26.0334C147.496 26.0334 146.849 25.81 146.379 25.3632C145.909 24.9164 145.673 24.3049 145.673 23.5289V15.3096C145.673 14.2749 145.45 13.5106 145.003 13.0167C144.58 12.4993 143.91 12.2406 142.992 12.2406C141.887 12.2406 140.993 12.5934 140.311 13.2989C139.653 14.0044 139.324 14.9451 139.324 16.121V23.5289C139.324 24.3049 139.089 24.9164 138.618 25.3632C138.148 25.81 137.501 26.0334 136.678 26.0334C135.855 26.0334 135.197 25.81 134.703 25.3632C134.232 24.9164 133.997 24.3049 133.997 23.5289V3.21008C133.997 2.48105 134.244 1.89313 134.738 1.4463C135.255 0.999477 135.926 0.776064 136.749 0.776064C137.525 0.776064 138.148 0.987718 138.618 1.41103C139.089 1.83433 139.324 2.39874 139.324 3.10426V10.7943C139.935 9.9007 140.723 9.23046 141.687 8.78364C142.651 8.31329 143.745 8.07812 144.968 8.07812Z" fill="white"/>
</g>
<defs>
<filter id="filter0_d" x="0" y="0" width="152" height="28.104" filterUnits="userSpaceOnUse" color-interpolation-filters="sRGB">
<feFlood flood-opacity="0" result="BackgroundImageFix"/>
<feColorMatrix in="SourceAlpha" type="matrix" values="0 0 0 0 0 0 0 0 0 0 0 0 0 0 0 0 0 0 127 0"/>
<feOffset dy="1"/>
<feGaussianBlur stdDeviation="0.5"/>
<feColorMatrix type="matrix" values="0 0 0 0 0 0 0 0 0 0 0 0 0 0 0 0 0 0 0.1 0"/>
<feBlend mode="normal" in2="BackgroundImageFix" result="effect1_dropShadow"/>
<feBlend mode="normal" in="SourceGraphic" in2="effect1_dropShadow" result="shape"/>
</filter>
</defs>
</svg>